<svg id="Laag_1" data-name="Laag 1" xmlns="http://www.w3.org/2000/svg" xmlns:xlink="http://www.w3.org/1999/xlink" viewBox="0 0 1201 631"><defs><style>.cls-1,.cls-7{fill:#ebebeb;}.cls-1{stroke:#ebebeb;stroke-miterlimit:10;}.cls-2{fill:#bf4e2f;}.cls-3{font-size:79.44px;fill:#353535;font-family:Raleway-Bold, Raleway;font-weight:700;letter-spacing:0.2em;}.cls-4{font-size:33.1px;fill:#878888;font-family:Rubik-Light, Rubik;font-weight:300;}.cls-5{letter-spacing:-0.01em;}.cls-6{fill:none;stroke:#bf4e2f;}</style></defs><rect class="cls-1" x="0.5" y="0.5" width="1200" height="630"/><rect class="cls-2" x="274.62" y="375.95" width="231.22" height="58.82" rx="10"/><text class="cls-3" transform="translate(559.69 367.32)">KAREL<tspan class="cls-2" x="332.92" y="0">.</tspan></text><text class="cls-4" transform="translate(565.57 414.49)"><tspan class="cls-5">w</tspan><tspan x="25.59" y="0">ebsites &amp; UX/UI</tspan></text><image width="684" height="868" transform="translate(312.59 196.24) scale(0.25)" xlink:href="../karel1_cut.png"/><g id="Ellipse_4" data-name="Ellipse 4"><circle class="cls-2" cx="153.84" cy="127.69" r="37.5"/><circle class="cls-6" cx="153.84" cy="127.69" r="37"/></g><path id="ic_phonelink_24px" data-name="ic phonelink 24px" class="cls-7" d="M140.51,117h30v-3.33h-30a3.36,3.36,0,0,0-3.34,3.33v18.34h-3.33v5h23.33v-5H140.51Zm31.66,3.34h-10a1.66,1.66,0,0,0-1.66,1.66v16.67a1.66,1.66,0,0,0,1.66,1.67h10a1.67,1.67,0,0,0,1.67-1.67V122a1.67,1.67,0,0,0-1.67-1.66Zm-1.66,15h-6.67V123.69h6.67Z" transform="translate(0.5 0.5)"/><g id="Ellipse_16" data-name="Ellipse 16"><circle class="cls-2" cx="543.34" cy="540" r="37.5"/><circle class="cls-6" cx="543.34" cy="540" r="37"/></g><path id="ic_web_24px" data-name="ic web 24px" class="cls-7" d="M556.71,526h-27a3.37,3.37,0,0,0-3.35,3.38l0,20.25a3.38,3.38,0,0,0,3.37,3.37h27a3.38,3.38,0,0,0,3.38-3.37V529.38A3.4,3.4,0,0,0,556.71,526Zm-8.43,23.63H529.71v-6.75h18.57Zm0-8.44H529.71v-6.75h18.57Zm8.44,8.44H550V534.44h6.75Z" transform="translate(0.5 0.5)"/><g id="Ellipse_17" data-name="Ellipse 17"><circle class="cls-2" cx="824.01" cy="168.36" r="37.5"/><circle class="cls-6" cx="824.01" cy="168.36" r="37"/></g><path id="ic_color_lens_24px" data-name="ic color lens 24px" class="cls-7" d="M824,151.73A16.63,16.63,0,1,0,824,185h0a2.78,2.78,0,0,0,2-4.64,2.76,2.76,0,0,1,2.07-4.6h3.27a9.25,9.25,0,0,0,9.24-9.24C840.64,158.34,833.19,151.73,824,151.73Zm-10.17,16.63a2.78,2.78,0,1,1,2.77-2.77h0a2.76,2.76,0,0,1-2.76,2.77Zm5.55-7.39a2.78,2.78,0,1,1,2.77-2.78h0a2.78,2.78,0,0,1-2.77,2.78Zm9.23,0a2.78,2.78,0,1,1,2.78-2.78h0a2.78,2.78,0,0,1-2.77,2.78h0Zm5.55,7.39a2.78,2.78,0,1,1,2.77-2.77h0a2.77,2.77,0,0,1-2.76,2.77Z" transform="translate(0.5 0.5)"/><g id="Ellipse_18" data-name="Ellipse 18"><circle class="cls-2" cx="1068.27" cy="454.77" r="37.5"/><circle class="cls-6" cx="1068.27" cy="454.77" r="37"/></g><g id="ic_linked_camera_24px" data-name="ic linked camera 24px"><circle id="Ellipse_15" data-name="Ellipse 15" class="cls-7" cx="1067.9" cy="457.63" r="5.16"/><path id="Path_90" data-name="Path 90" class="cls-7" d="M1073.85,439.92a7.53,7.53,0,0,1,7.53,7.53h2.15a9.68,9.68,0,0,0-9.68-9.68v2.15m0,4.3a3.22,3.22,0,0,1,3.23,3.21v0h2.14a5.36,5.36,0,0,0-5.37-5.37h0v2.14" transform="translate(0.5 0.5)"/><path id="Path_91" data-name="Path 91" class="cls-7" d="M1075.47,449.06a3.22,3.22,0,0,0-3.21-3.22h0V441h-9.68l-3,3.22h-5.12a3.23,3.23,0,0,0-3.22,3.23v19.36a3.22,3.22,0,0,0,3.22,3.22h25.81a3.23,3.23,0,0,0,3.23-3.22V449.06Zm-8.07,16.14a8.07,8.07,0,1,1,8.07-8.07A8.07,8.07,0,0,1,1067.4,465.2Z" transform="translate(0.5 0.5)"/></g></svg>